# xmcd CD database file
#
# Track frame offsets:
#	150
#	13250
#	24650
#	41375
#	56250
#	68625
#	81487
#	94912
#	111125
#	125162
#	139625
#	155437
#
# Disc length: 2253 seconds
#
# Revision: 0
# Processed by: cddbd v1.5PL3 Copyright (c) Steve Scherf et al.
# Submitted via: CDex 1.51
#
DISCID=9e08cb0c
DTITLE=豊川誕 - 汚れなき悪戯●星めぐり
DYEAR=1900
DGENRE=JPop
TTITLE0=汚れなき悪戯
TTITLE1=オリビアの調べ
TTITLE2=時には母のない子のように
TTITLE3=夜と朝のあいだに
TTITLE4=17才
TTITLE5=空に太陽がある限り
TTITLE6=男の子女の子
TTITLE7=二人の日曜日
TTITLE8=赤い風船
TTITLE9=ミドリ色の屋根
TTITLE10=湖の決心
TTITLE11=星めぐり
EXTD=
EXTT0=
EXTT1=
EXTT2=
EXTT3=
EXTT4=
EXTT5=
EXTT6=
EXTT7=
EXTT8=
EXTT9=
EXTT10=
EXTT11=
PLAYORDER=
